<?xml version="1.0" encoding="UTF-8"?>
<svg width="50px" height="59px" viewBox="0 0 50 59" version="1.1" xmlns="http://www.w3.org/2000/svg" xmlns:xlink="http://www.w3.org/1999/xlink">
    <!-- Generator: Sketch 55.1 (78136) - https://sketchapp.com -->
    <title>Shape</title>
    <desc>Created with Sketch.</desc>
    <g id="Species" stroke="none" stroke-width="1" fill="none" fill-rule="evenodd">
        <g id="Desktop-HD-Copy-3" transform="translate(-498.000000, -584.000000)" fill="#4B2075" fill-rule="nonzero">
            <g id="Tooltip-Copy" transform="translate(440.000000, 401.000000)">
                <path d="M74.5178571,216.563953 L70.0535714,216.563953 C69.3169643,216.563953 68.7142857,215.950763 68.7142857,215.201308 L68.7142857,210.659157 C68.7142857,209.909702 69.3169643,209.296512 70.0535714,209.296512 L74.5178571,209.296512 C75.2544643,209.296512 75.8571429,209.909702 75.8571429,210.659157 L75.8571429,215.201308 C75.8571429,215.950763 75.2544643,216.563953 74.5178571,216.563953 Z M86.5714286,215.201308 L86.5714286,210.659157 C86.5714286,209.909702 85.96875,209.296512 85.2321429,209.296512 L80.7678571,209.296512 C80.03125,209.296512 79.4285714,209.909702 79.4285714,210.659157 L79.4285714,215.201308 C79.4285714,215.950763 80.03125,216.563953 80.7678571,216.563953 L85.2321429,216.563953 C85.96875,216.563953 86.5714286,215.950763 86.5714286,215.201308 Z M97.2857143,215.201308 L97.2857143,210.659157 C97.2857143,209.909702 96.6830357,209.296512 95.9464286,209.296512 L91.4821429,209.296512 C90.7455357,209.296512 90.1428571,209.909702 90.1428571,210.659157 L90.1428571,215.201308 C90.1428571,215.950763 90.7455357,216.563953 91.4821429,216.563953 L95.9464286,216.563953 C96.6830357,216.563953 97.2857143,215.950763 97.2857143,215.201308 Z M86.5714286,226.102471 L86.5714286,221.56032 C86.5714286,220.810865 85.96875,220.197674 85.2321429,220.197674 L80.7678571,220.197674 C80.03125,220.197674 79.4285714,220.810865 79.4285714,221.56032 L79.4285714,226.102471 C79.4285714,226.851926 80.03125,227.465116 80.7678571,227.465116 L85.2321429,227.465116 C85.96875,227.465116 86.5714286,226.851926 86.5714286,226.102471 Z M75.8571429,226.102471 L75.8571429,221.56032 C75.8571429,220.810865 75.2544643,220.197674 74.5178571,220.197674 L70.0535714,220.197674 C69.3169643,220.197674 68.7142857,220.810865 68.7142857,221.56032 L68.7142857,226.102471 C68.7142857,226.851926 69.3169643,227.465116 70.0535714,227.465116 L74.5178571,227.465116 C75.2544643,227.465116 75.8571429,226.851926 75.8571429,226.102471 Z M97.2857143,226.102471 L97.2857143,221.56032 C97.2857143,220.810865 96.6830357,220.197674 95.9464286,220.197674 L91.4821429,220.197674 C90.7455357,220.197674 90.1428571,220.810865 90.1428571,221.56032 L90.1428571,226.102471 C90.1428571,226.851926 90.7455357,227.465116 91.4821429,227.465116 L95.9464286,227.465116 C96.6830357,227.465116 97.2857143,226.851926 97.2857143,226.102471 Z M108,196.578488 L108,236.549419 C108,239.558594 105.600446,242 102.642857,242 L63.3571429,242 C60.3995536,242 58,239.558594 58,236.549419 L58,196.578488 C58,193.569313 60.3995536,191.127907 63.3571429,191.127907 L68.7142857,191.127907 L68.7142857,185.22311 C68.7142857,184.473656 69.3169643,183.860465 70.0535714,183.860465 L74.5178571,183.860465 C75.2544643,183.860465 75.8571429,184.473656 75.8571429,185.22311 L75.8571429,191.127907 L90.1428571,191.127907 L90.1428571,185.22311 C90.1428571,184.473656 90.7455357,183.860465 91.4821429,183.860465 L95.9464286,183.860465 C96.6830357,183.860465 97.2857143,184.473656 97.2857143,185.22311 L97.2857143,191.127907 L102.642857,191.127907 C105.600446,191.127907 108,193.569313 108,196.578488 Z M102.642857,235.868096 L102.642857,202.02907 L63.3571429,202.02907 L63.3571429,235.868096 C63.3571429,236.242823 63.6584821,236.549419 64.0267857,236.549419 L101.973214,236.549419 C102.341518,236.549419 102.642857,236.242823 102.642857,235.868096 Z" id="Shape"></path>
            </g>
        </g>
    </g>
</svg>