<?xml version="1.0" encoding="UTF-8"?>
<svg width="50px" height="50px" viewBox="0 0 50 50" version="1.1" xmlns="http://www.w3.org/2000/svg" xmlns:xlink="http://www.w3.org/1999/xlink">
    <!-- Generator: Sketch 55.1 (78136) - https://sketchapp.com -->
    <title>Shape</title>
    <desc>Created with Sketch.</desc>
    <g id="Species" stroke="none" stroke-width="1" fill="none" fill-rule="evenodd">
        <g id="Desktop-HD-Copy-3" transform="translate(-498.000000, -678.000000)" fill="#4B2075" fill-rule="nonzero">
            <g id="Tooltip-Copy" transform="translate(440.000000, 401.000000)">
                <path d="M101.75,277 L64.25,277 C60.8027344,277 58,279.802734 58,283.25 L58,311.375 C58,314.822266 60.8027344,317.625 64.25,317.625 L73.625,317.625 L73.625,325.828125 C73.625,326.521484 74.1914062,327 74.796875,327 C75.03125,327 75.2753906,326.931641 75.4902344,326.765625 L87.6875,317.625 L101.75,317.625 C105.197266,317.625 108,314.822266 108,311.375 L108,283.25 C108,279.802734 105.197266,277 101.75,277 Z M103.3125,311.375 C103.3125,312.234375 102.609375,312.9375 101.75,312.9375 L86.125,312.9375 L84.875,313.875 L78.3125,318.796875 L78.3125,312.9375 L64.25,312.9375 C63.390625,312.9375 62.6875,312.234375 62.6875,311.375 L62.6875,283.25 C62.6875,282.390625 63.390625,281.6875 64.25,281.6875 L101.75,281.6875 C102.609375,281.6875 103.3125,282.390625 103.3125,283.25 L103.3125,311.375 Z" id="Shape" transform="translate(83.000000, 302.000000) scale(-1, 1) translate(-83.000000, -302.000000) "></path>
            </g>
        </g>
    </g>
</svg>