<?xml version="1.0" encoding="UTF-8"?>
<svg width="30px" height="30px" viewBox="0 0 30 30" version="1.1" xmlns="http://www.w3.org/2000/svg" xmlns:xlink="http://www.w3.org/1999/xlink">
    <!-- Generator: Sketch 55.1 (78136) - https://sketchapp.com -->
    <title>info-circle</title>
    <desc>Created with Sketch.</desc>
    <g id="Species" stroke="none" stroke-width="1" fill="none" fill-rule="evenodd">
        <g id="Desktop-HD-Copy-3" transform="translate(-1210.000000, -946.000000)" fill="#4B2075" fill-rule="nonzero">
            <g id="info-circle" transform="translate(1210.000000, 946.000000)">
                <path d="M15,1.93548387 C22.1746573,1.93548387 28.0645161,7.74647177 28.0645161,15 C28.0645161,22.2151815 22.2211694,28.0645161 15,28.0645161 C7.78766129,28.0645161 1.93548387,22.2240726 1.93548387,15 C1.93548387,7.79014113 7.77834677,1.93548387 15,1.93548387 L15,1.93548387 Z M15,0 C6.71631048,0 0,6.71872984 0,15 C0,23.2861089 6.71631048,30 15,30 C23.2836895,30 30,23.2861089 30,15 C30,6.71872984 23.2836895,0 15,0 Z M12.8225806,20.8064516 L13.5483871,20.8064516 L13.5483871,13.5483871 L12.8225806,13.5483871 C12.421754,13.5483871 12.0967742,13.2234073 12.0967742,12.8225806 L12.0967742,12.3387097 C12.0967742,11.9378831 12.421754,11.6129032 12.8225806,11.6129032 L15.7258065,11.6129032 C16.1266331,11.6129032 16.4516129,11.9378831 16.4516129,12.3387097 L16.4516129,20.8064516 L17.1774194,20.8064516 C17.578246,20.8064516 17.9032258,21.1314315 17.9032258,21.5322581 L17.9032258,22.016129 C17.9032258,22.4169556 17.578246,22.7419355 17.1774194,22.7419355 L12.8225806,22.7419355 C12.421754,22.7419355 12.0967742,22.4169556 12.0967742,22.016129 L12.0967742,21.5322581 C12.0967742,21.1314315 12.421754,20.8064516 12.8225806,20.8064516 Z M15,6.29032258 C13.9310685,6.29032258 13.0645161,7.156875 13.0645161,8.22580645 C13.0645161,9.2947379 13.9310685,10.1612903 15,10.1612903 C16.0689315,10.1612903 16.9354839,9.2947379 16.9354839,8.22580645 C16.9354839,7.156875 16.0689315,6.29032258 15,6.29032258 Z" id="Shape"></path>
            </g>
        </g>
    </g>
</svg>