<?xml version="1.0" encoding="UTF-8"?>
<svg width="50px" height="50px" viewBox="0 0 50 50" version="1.1" xmlns="http://www.w3.org/2000/svg" xmlns:xlink="http://www.w3.org/1999/xlink">
    <!-- Generator: Sketch 55.1 (78136) - https://sketchapp.com -->
    <title>Shape</title>
    <desc>Created with Sketch.</desc>
    <g id="Species" stroke="none" stroke-width="1" fill="none" fill-rule="evenodd">
        <g id="Desktop-HD-Copy-3" transform="translate(-500.000000, -799.000000)" fill="#4B2075" fill-rule="nonzero">
            <g id="Tooltip-Copy" transform="translate(440.000000, 401.000000)">
                <path d="M91.7439516,416.790323 L91.7439516,427.012097 L88.891129,427.012097 L88.891129,439.159274 L81.1189516,439.159274 L81.1189516,427.022177 L78.266129,427.022177 L78.266129,416.790323 C78.266129,416.346774 78.4274194,415.96371 78.7298387,415.65121 C79.0423387,415.33871 79.4254032,415.177419 79.8689516,415.177419 L90.141129,415.177419 C90.5544355,415.177419 90.9274194,415.33871 91.2600806,415.65121 C91.5725806,415.97379 91.7439516,416.346774 91.7439516,416.790323 L91.7439516,416.790323 Z M81.5120968,410.368952 C81.5120968,408.020161 82.671371,406.840726 84.9899194,406.840726 C87.3084677,406.840726 88.4677419,408.020161 88.4677419,410.368952 C88.4677419,412.6875 87.3084677,413.846774 84.9899194,413.846774 C82.671371,413.846774 81.5120968,412.6875 81.5120968,410.368952 Z M84.9596774,398 C99.2540323,398 110,409.09879 110,423 C110,437.828629 98.0544355,448 84.9596774,448 C71.4516129,448 60,436.961694 60,423 C60,409.602823 70.5544355,398 84.9596774,398 Z M85.0403226,402.506048 C73.125,402.506048 64.5060484,412.375 64.5060484,423 C64.5060484,434.068548 73.6995968,443.443548 85.0403226,443.443548 C95.4435484,443.443548 105.483879,435.268145 105.483879,423 C105.493952,411.528226 96.391129,402.506048 85.0403226,402.506048 Z" id="Shape"></path>
            </g>
        </g>
    </g>
</svg>